<mxfile host="app.diagrams.net" agent="Mozilla/5.0 (Windows NT 10.0; Win64; x64) AppleWebKit/537.36 (KHTML, like Gecko) Chrome/130.0.0.0 Safari/537.36" version="24.8.3">
  <diagram name="Página-1" id="kM6uCfai8i9IwlN-UIFx">
    <mxGraphModel dx="733" dy="393" grid="1" gridSize="10" guides="1" tooltips="1" connect="1" arrows="1" fold="1" page="1" pageScale="1" pageWidth="827" pageHeight="1169" math="0" shadow="0">
      <root>
        <mxCell id="0" />
        <mxCell id="1" parent="0" />
        <mxCell id="Ihxuk8Aro-9lfk23zPcp-2" value="Actor" style="shape=umlActor;verticalLabelPosition=bottom;verticalAlign=top;html=1;outlineConnect=0;fillColor=#bac8d3;strokeColor=#23445d;" vertex="1" parent="1">
          <mxGeometry x="40" y="130" width="30" height="40" as="geometry" />
        </mxCell>
        <mxCell id="Ihxuk8Aro-9lfk23zPcp-4" value="Neste caso considere o ator como o postman, onde ele realizara a chama a api que consultará CEP" style="text;html=1;align=center;verticalAlign=middle;whiteSpace=wrap;rounded=0;" vertex="1" parent="1">
          <mxGeometry x="80" y="40" width="220" height="30" as="geometry" />
        </mxCell>
        <mxCell id="Ihxuk8Aro-9lfk23zPcp-18" style="edgeStyle=orthogonalEdgeStyle;rounded=0;orthogonalLoop=1;jettySize=auto;html=1;exitX=0.5;exitY=1;exitDx=0;exitDy=0;entryX=0.5;entryY=0;entryDx=0;entryDy=0;" edge="1" parent="1" source="Ihxuk8Aro-9lfk23zPcp-6" target="Ihxuk8Aro-9lfk23zPcp-15">
          <mxGeometry relative="1" as="geometry" />
        </mxCell>
        <mxCell id="Ihxuk8Aro-9lfk23zPcp-6" value="Aplicação Java" style="rounded=0;whiteSpace=wrap;html=1;fillColor=#fad7ac;strokeColor=#b46504;shadow=1;" vertex="1" parent="1">
          <mxGeometry x="190" y="140" width="170" height="50" as="geometry" />
        </mxCell>
        <mxCell id="Ihxuk8Aro-9lfk23zPcp-11" style="edgeStyle=orthogonalEdgeStyle;rounded=0;orthogonalLoop=1;jettySize=auto;html=1;exitX=0.5;exitY=0.5;exitDx=0;exitDy=0;exitPerimeter=0;" edge="1" parent="1" source="Ihxuk8Aro-9lfk23zPcp-2">
          <mxGeometry relative="1" as="geometry">
            <mxPoint x="190" y="157" as="targetPoint" />
            <Array as="points">
              <mxPoint x="55" y="157" />
            </Array>
          </mxGeometry>
        </mxCell>
        <mxCell id="Ihxuk8Aro-9lfk23zPcp-31" style="edgeStyle=orthogonalEdgeStyle;rounded=0;orthogonalLoop=1;jettySize=auto;html=1;exitX=0.5;exitY=1;exitDx=0;exitDy=0;entryX=0.5;entryY=0;entryDx=0;entryDy=0;" edge="1" parent="1" source="Ihxuk8Aro-9lfk23zPcp-15" target="Ihxuk8Aro-9lfk23zPcp-30">
          <mxGeometry relative="1" as="geometry" />
        </mxCell>
        <mxCell id="Ihxuk8Aro-9lfk23zPcp-15" value="Controller da API BuscaCEP" style="rounded=0;whiteSpace=wrap;html=1;fillColor=#fad7ac;strokeColor=#b46504;shadow=1;" vertex="1" parent="1">
          <mxGeometry x="190" y="250" width="170" height="50" as="geometry" />
        </mxCell>
        <mxCell id="Ihxuk8Aro-9lfk23zPcp-16" value="Chamada&amp;nbsp;&lt;br style=&quot;font-size: 11px;&quot;&gt;http://localhost:8089/" style="text;html=1;align=center;verticalAlign=middle;whiteSpace=wrap;rounded=0;fontSize=11;" vertex="1" parent="1">
          <mxGeometry x="15" y="120" width="230" height="30" as="geometry" />
        </mxCell>
        <mxCell id="Ihxuk8Aro-9lfk23zPcp-20" value="&lt;font style=&quot;font-size: 11px;&quot;&gt;Método: GET&lt;br&gt;&lt;/font&gt;&lt;font style=&quot;font-size: 11px;&quot;&gt;Endpoint&lt;/font&gt;:&amp;nbsp;&lt;span style=&quot;font-size: 11px;&quot;&gt;api/endereço/{cep}&lt;/span&gt;" style="text;html=1;align=center;verticalAlign=middle;whiteSpace=wrap;rounded=0;" vertex="1" parent="1">
          <mxGeometry x="246" y="200" width="230" height="30" as="geometry" />
        </mxCell>
        <mxCell id="Ihxuk8Aro-9lfk23zPcp-28" style="edgeStyle=orthogonalEdgeStyle;rounded=0;orthogonalLoop=1;jettySize=auto;html=1;exitX=0.5;exitY=1;exitDx=0;exitDy=0;entryX=0.5;entryY=0;entryDx=0;entryDy=0;" edge="1" parent="1" source="Ihxuk8Aro-9lfk23zPcp-22" target="Ihxuk8Aro-9lfk23zPcp-25">
          <mxGeometry relative="1" as="geometry" />
        </mxCell>
        <mxCell id="Ihxuk8Aro-9lfk23zPcp-22" value="&lt;font style=&quot;font-size: 11px;&quot;&gt;Facade ( Organizar os steps das chamadas do métodos)&lt;/font&gt;" style="rounded=0;whiteSpace=wrap;html=1;fillColor=#fad7ac;strokeColor=#b46504;shadow=1;" vertex="1" parent="1">
          <mxGeometry x="190" y="520" width="170" height="50" as="geometry" />
        </mxCell>
        <mxCell id="Ihxuk8Aro-9lfk23zPcp-24" value="Repassa o cep informado para a facade" style="text;html=1;align=center;verticalAlign=middle;whiteSpace=wrap;rounded=0;" vertex="1" parent="1">
          <mxGeometry x="300" y="470" width="150" height="30" as="geometry" />
        </mxCell>
        <mxCell id="Ihxuk8Aro-9lfk23zPcp-47" style="edgeStyle=orthogonalEdgeStyle;rounded=0;orthogonalLoop=1;jettySize=auto;html=1;exitX=0.5;exitY=1;exitDx=0;exitDy=0;" edge="1" parent="1" source="Ihxuk8Aro-9lfk23zPcp-25" target="Ihxuk8Aro-9lfk23zPcp-46">
          <mxGeometry relative="1" as="geometry" />
        </mxCell>
        <mxCell id="Ihxuk8Aro-9lfk23zPcp-25" value="&lt;font style=&quot;font-size: 11px;&quot;&gt;Service&lt;/font&gt;&lt;span style=&quot;font-size: 11px; background-color: initial;&quot;&gt;&amp;nbsp;&lt;/span&gt;" style="rounded=0;whiteSpace=wrap;html=1;fillColor=#fad7ac;strokeColor=#b46504;shadow=1;" vertex="1" parent="1">
          <mxGeometry x="190" y="620" width="170" height="50" as="geometry" />
        </mxCell>
        <mxCell id="Ihxuk8Aro-9lfk23zPcp-68" style="edgeStyle=orthogonalEdgeStyle;rounded=0;orthogonalLoop=1;jettySize=auto;html=1;exitX=0.5;exitY=1;exitDx=0;exitDy=0;entryX=1;entryY=1;entryDx=0;entryDy=0;" edge="1" parent="1" source="Ihxuk8Aro-9lfk23zPcp-26" target="Ihxuk8Aro-9lfk23zPcp-25">
          <mxGeometry relative="1" as="geometry" />
        </mxCell>
        <mxCell id="Ihxuk8Aro-9lfk23zPcp-26" value="&lt;span style=&quot;font-size: 11px;&quot;&gt;Api CEP Mockada (WireMock)&lt;/span&gt;" style="rounded=0;whiteSpace=wrap;html=1;fillColor=#d0cee2;strokeColor=#56517e;shadow=1;" vertex="1" parent="1">
          <mxGeometry x="460" y="620" width="170" height="50" as="geometry" />
        </mxCell>
        <mxCell id="Ihxuk8Aro-9lfk23zPcp-33" style="edgeStyle=orthogonalEdgeStyle;rounded=0;orthogonalLoop=1;jettySize=auto;html=1;exitX=0.5;exitY=1;exitDx=0;exitDy=0;entryX=0.5;entryY=0;entryDx=0;entryDy=0;" edge="1" parent="1" source="Ihxuk8Aro-9lfk23zPcp-30" target="Ihxuk8Aro-9lfk23zPcp-32">
          <mxGeometry relative="1" as="geometry" />
        </mxCell>
        <mxCell id="Ihxuk8Aro-9lfk23zPcp-30" value="Valida CEP" style="shape=process;whiteSpace=wrap;html=1;backgroundOutline=1;fillColor=#bac8d3;strokeColor=#23445d;" vertex="1" parent="1">
          <mxGeometry x="215" y="330" width="120" height="40" as="geometry" />
        </mxCell>
        <mxCell id="Ihxuk8Aro-9lfk23zPcp-35" style="edgeStyle=orthogonalEdgeStyle;rounded=0;orthogonalLoop=1;jettySize=auto;html=1;exitX=0.5;exitY=1;exitDx=0;exitDy=0;entryX=0.5;entryY=0;entryDx=0;entryDy=0;" edge="1" parent="1" source="Ihxuk8Aro-9lfk23zPcp-32" target="Ihxuk8Aro-9lfk23zPcp-22">
          <mxGeometry relative="1" as="geometry" />
        </mxCell>
        <mxCell id="Ihxuk8Aro-9lfk23zPcp-38" style="edgeStyle=orthogonalEdgeStyle;rounded=0;orthogonalLoop=1;jettySize=auto;html=1;exitX=1;exitY=0.5;exitDx=0;exitDy=0;entryX=0;entryY=0.5;entryDx=0;entryDy=0;" edge="1" parent="1" source="Ihxuk8Aro-9lfk23zPcp-32" target="Ihxuk8Aro-9lfk23zPcp-37">
          <mxGeometry relative="1" as="geometry" />
        </mxCell>
        <mxCell id="Ihxuk8Aro-9lfk23zPcp-32" value="&lt;font style=&quot;font-size: 10px;&quot;&gt;CEP OK?&lt;/font&gt;" style="rhombus;whiteSpace=wrap;html=1;fillColor=#bac8d3;strokeColor=#23445d;" vertex="1" parent="1">
          <mxGeometry x="245" y="400" width="60" height="60" as="geometry" />
        </mxCell>
        <mxCell id="Ihxuk8Aro-9lfk23zPcp-36" value="&lt;font style=&quot;font-size: 10px;&quot;&gt;SIM&lt;/font&gt;" style="text;html=1;align=center;verticalAlign=middle;whiteSpace=wrap;rounded=0;" vertex="1" parent="1">
          <mxGeometry x="205" y="470" width="60" height="30" as="geometry" />
        </mxCell>
        <mxCell id="Ihxuk8Aro-9lfk23zPcp-40" style="edgeStyle=orthogonalEdgeStyle;rounded=0;orthogonalLoop=1;jettySize=auto;html=1;exitX=1;exitY=0.5;exitDx=0;exitDy=0;" edge="1" parent="1" source="Ihxuk8Aro-9lfk23zPcp-37" target="Ihxuk8Aro-9lfk23zPcp-39">
          <mxGeometry relative="1" as="geometry" />
        </mxCell>
        <mxCell id="Ihxuk8Aro-9lfk23zPcp-37" value="&lt;font style=&quot;font-size: 11px;&quot;&gt;Lança exceção BadRequest&lt;/font&gt;" style="shape=process;whiteSpace=wrap;html=1;backgroundOutline=1;fillColor=#fad9d5;strokeColor=#ae4132;" vertex="1" parent="1">
          <mxGeometry x="370" y="410" width="120" height="40" as="geometry" />
        </mxCell>
        <mxCell id="Ihxuk8Aro-9lfk23zPcp-42" style="edgeStyle=orthogonalEdgeStyle;rounded=0;orthogonalLoop=1;jettySize=auto;html=1;exitX=1;exitY=0.5;exitDx=0;exitDy=0;" edge="1" parent="1" source="Ihxuk8Aro-9lfk23zPcp-39" target="Ihxuk8Aro-9lfk23zPcp-41">
          <mxGeometry relative="1" as="geometry" />
        </mxCell>
        <mxCell id="Ihxuk8Aro-9lfk23zPcp-39" value="&lt;font style=&quot;font-size: 11px;&quot;&gt;Fim de execução&lt;/font&gt;" style="shape=process;whiteSpace=wrap;html=1;backgroundOutline=1;fillColor=#fad9d5;strokeColor=#ae4132;" vertex="1" parent="1">
          <mxGeometry x="530" y="410" width="120" height="40" as="geometry" />
        </mxCell>
        <mxCell id="Ihxuk8Aro-9lfk23zPcp-41" value="Actor" style="shape=umlActor;verticalLabelPosition=bottom;verticalAlign=top;html=1;outlineConnect=0;fillColor=#bac8d3;strokeColor=#23445d;" vertex="1" parent="1">
          <mxGeometry x="710" y="415" width="30" height="30" as="geometry" />
        </mxCell>
        <mxCell id="Ihxuk8Aro-9lfk23zPcp-55" style="edgeStyle=orthogonalEdgeStyle;rounded=0;orthogonalLoop=1;jettySize=auto;html=1;exitX=0.5;exitY=1;exitDx=0;exitDy=0;entryX=0.5;entryY=0;entryDx=0;entryDy=0;" edge="1" parent="1" source="Ihxuk8Aro-9lfk23zPcp-43" target="Ihxuk8Aro-9lfk23zPcp-54">
          <mxGeometry relative="1" as="geometry" />
        </mxCell>
        <mxCell id="Ihxuk8Aro-9lfk23zPcp-43" value="&lt;span style=&quot;font-size: 11px;&quot;&gt;Repository&lt;/span&gt;" style="rounded=0;whiteSpace=wrap;html=1;fillColor=#fad7ac;strokeColor=#b46504;shadow=1;" vertex="1" parent="1">
          <mxGeometry x="190" y="870" width="170" height="50" as="geometry" />
        </mxCell>
        <mxCell id="Ihxuk8Aro-9lfk23zPcp-44" value="&lt;font style=&quot;font-size: 9px;&quot;&gt;CEP: 12345-678&lt;/font&gt;" style="text;html=1;align=center;verticalAlign=middle;whiteSpace=wrap;rounded=0;" vertex="1" parent="1">
          <mxGeometry x="420" y="570" width="80" height="30" as="geometry" />
        </mxCell>
        <mxCell id="Ihxuk8Aro-9lfk23zPcp-45" value="&lt;font style=&quot;font-size: 10px;&quot;&gt;Retorna endereço mockado&lt;/font&gt;" style="text;html=1;align=center;verticalAlign=middle;whiteSpace=wrap;rounded=0;" vertex="1" parent="1">
          <mxGeometry x="360" y="690" width="180" height="30" as="geometry" />
        </mxCell>
        <mxCell id="Ihxuk8Aro-9lfk23zPcp-49" style="edgeStyle=orthogonalEdgeStyle;rounded=0;orthogonalLoop=1;jettySize=auto;html=1;exitX=0.5;exitY=1;exitDx=0;exitDy=0;entryX=0.5;entryY=0;entryDx=0;entryDy=0;" edge="1" parent="1" source="Ihxuk8Aro-9lfk23zPcp-46" target="Ihxuk8Aro-9lfk23zPcp-43">
          <mxGeometry relative="1" as="geometry" />
        </mxCell>
        <mxCell id="Ihxuk8Aro-9lfk23zPcp-46" value="Mapper" style="shape=process;whiteSpace=wrap;html=1;backgroundOutline=1;fillColor=#bac8d3;strokeColor=#23445d;" vertex="1" parent="1">
          <mxGeometry x="215" y="740" width="120" height="40" as="geometry" />
        </mxCell>
        <mxCell id="Ihxuk8Aro-9lfk23zPcp-48" value="&lt;font style=&quot;font-size: 10px;&quot;&gt;Recebe endereço como DTO e mapeia para Entidade&lt;/font&gt;" style="text;html=1;align=center;verticalAlign=middle;whiteSpace=wrap;rounded=0;" vertex="1" parent="1">
          <mxGeometry x="342.5" y="745" width="215" height="30" as="geometry" />
        </mxCell>
        <mxCell id="Ihxuk8Aro-9lfk23zPcp-50" value="Database" style="shape=cylinder3;whiteSpace=wrap;html=1;boundedLbl=1;backgroundOutline=1;size=15;fillColor=#e1d5e7;strokeColor=#9673a6;" vertex="1" parent="1">
          <mxGeometry x="471.5" y="855" width="86" height="65" as="geometry" />
        </mxCell>
        <mxCell id="Ihxuk8Aro-9lfk23zPcp-58" style="edgeStyle=orthogonalEdgeStyle;rounded=0;orthogonalLoop=1;jettySize=auto;html=1;exitX=1;exitY=0.5;exitDx=0;exitDy=0;" edge="1" parent="1" source="Ihxuk8Aro-9lfk23zPcp-52" target="Ihxuk8Aro-9lfk23zPcp-57">
          <mxGeometry relative="1" as="geometry" />
        </mxCell>
        <mxCell id="Ihxuk8Aro-9lfk23zPcp-52" value="&lt;span style=&quot;font-size: 11px;&quot;&gt;Controller da API Busca CEP&lt;/span&gt;" style="rounded=0;whiteSpace=wrap;html=1;fillColor=#fad7ac;strokeColor=#b46504;shadow=1;" vertex="1" parent="1">
          <mxGeometry x="190" y="1085" width="170" height="50" as="geometry" />
        </mxCell>
        <mxCell id="Ihxuk8Aro-9lfk23zPcp-53" style="edgeStyle=orthogonalEdgeStyle;rounded=0;orthogonalLoop=1;jettySize=auto;html=1;exitX=0.5;exitY=1;exitDx=0;exitDy=0;entryX=0.5;entryY=0;entryDx=0;entryDy=0;" edge="1" parent="1" source="Ihxuk8Aro-9lfk23zPcp-54" target="Ihxuk8Aro-9lfk23zPcp-52">
          <mxGeometry relative="1" as="geometry" />
        </mxCell>
        <mxCell id="Ihxuk8Aro-9lfk23zPcp-54" value="Mapper" style="shape=process;whiteSpace=wrap;html=1;backgroundOutline=1;fillColor=#bac8d3;strokeColor=#23445d;" vertex="1" parent="1">
          <mxGeometry x="215" y="1000" width="120" height="40" as="geometry" />
        </mxCell>
        <mxCell id="Ihxuk8Aro-9lfk23zPcp-56" value="&lt;font style=&quot;font-size: 10px;&quot;&gt;Recebe a representação da entidade salva no banco e mapeia para DTO&lt;/font&gt;" style="text;html=1;align=center;verticalAlign=middle;whiteSpace=wrap;rounded=0;" vertex="1" parent="1">
          <mxGeometry x="342.5" y="1005" width="220" height="30" as="geometry" />
        </mxCell>
        <mxCell id="Ihxuk8Aro-9lfk23zPcp-57" value="Actor" style="shape=umlActor;verticalLabelPosition=bottom;verticalAlign=top;html=1;outlineConnect=0;fillColor=#bac8d3;strokeColor=#23445d;" vertex="1" parent="1">
          <mxGeometry x="660" y="1090" width="40" height="40" as="geometry" />
        </mxCell>
        <mxCell id="Ihxuk8Aro-9lfk23zPcp-59" value="&lt;font style=&quot;font-size: 10px;&quot;&gt;Devolve as informações para o ator ( Response )&lt;/font&gt;" style="text;html=1;align=center;verticalAlign=middle;whiteSpace=wrap;rounded=0;" vertex="1" parent="1">
          <mxGeometry x="366" y="1110" width="270" height="30" as="geometry" />
        </mxCell>
        <mxCell id="Ihxuk8Aro-9lfk23zPcp-63" value="&lt;font style=&quot;font-size: 10px;&quot;&gt;Não&lt;/font&gt;" style="text;html=1;align=center;verticalAlign=middle;whiteSpace=wrap;rounded=0;" vertex="1" parent="1">
          <mxGeometry x="300" y="400" width="60" height="30" as="geometry" />
        </mxCell>
        <mxCell id="Ihxuk8Aro-9lfk23zPcp-67" style="edgeStyle=orthogonalEdgeStyle;rounded=0;orthogonalLoop=1;jettySize=auto;html=1;exitX=1;exitY=0;exitDx=0;exitDy=0;entryX=0.463;entryY=-0.043;entryDx=0;entryDy=0;entryPerimeter=0;" edge="1" parent="1" source="Ihxuk8Aro-9lfk23zPcp-25" target="Ihxuk8Aro-9lfk23zPcp-26">
          <mxGeometry relative="1" as="geometry">
            <Array as="points">
              <mxPoint x="360" y="600" />
              <mxPoint x="539" y="600" />
            </Array>
          </mxGeometry>
        </mxCell>
        <mxCell id="Ihxuk8Aro-9lfk23zPcp-69" style="edgeStyle=orthogonalEdgeStyle;rounded=0;orthogonalLoop=1;jettySize=auto;html=1;exitX=1;exitY=0;exitDx=0;exitDy=0;entryX=-0.023;entryY=0.159;entryDx=0;entryDy=0;entryPerimeter=0;" edge="1" parent="1" source="Ihxuk8Aro-9lfk23zPcp-43" target="Ihxuk8Aro-9lfk23zPcp-50">
          <mxGeometry relative="1" as="geometry">
            <Array as="points">
              <mxPoint x="360" y="865" />
            </Array>
          </mxGeometry>
        </mxCell>
        <mxCell id="Ihxuk8Aro-9lfk23zPcp-70" value="&lt;font style=&quot;font-size: 9px;&quot;&gt;Envia a Entidade Endereço para persistir&lt;/font&gt;" style="text;html=1;align=center;verticalAlign=middle;whiteSpace=wrap;rounded=0;" vertex="1" parent="1">
          <mxGeometry x="366" y="825" width="110" height="30" as="geometry" />
        </mxCell>
        <mxCell id="Ihxuk8Aro-9lfk23zPcp-71" style="edgeStyle=orthogonalEdgeStyle;rounded=0;orthogonalLoop=1;jettySize=auto;html=1;exitX=0;exitY=1;exitDx=0;exitDy=-15;exitPerimeter=0;entryX=1.002;entryY=0.89;entryDx=0;entryDy=0;entryPerimeter=0;" edge="1" parent="1" source="Ihxuk8Aro-9lfk23zPcp-50" target="Ihxuk8Aro-9lfk23zPcp-43">
          <mxGeometry relative="1" as="geometry">
            <Array as="points">
              <mxPoint x="472" y="915" />
              <mxPoint x="416" y="915" />
            </Array>
          </mxGeometry>
        </mxCell>
        <mxCell id="Ihxuk8Aro-9lfk23zPcp-72" value="&lt;font style=&quot;font-size: 10px;&quot;&gt;Devolve a representação persistida&lt;/font&gt;" style="text;html=1;align=center;verticalAlign=middle;whiteSpace=wrap;rounded=0;" vertex="1" parent="1">
          <mxGeometry x="370" y="920" width="120" height="30" as="geometry" />
        </mxCell>
      </root>
    </mxGraphModel>
  </diagram>
</mxfile>
